<?xml version="1.0" encoding="UTF-8" standalone="no"?>
<!-- Created with Inkscape (http://www.inkscape.org/) -->

<svg
   width="11.5mm"
   height="9mm"
   viewBox="0 0 11.5 9"
   version="1.1"
   id="svg5"
   inkscape:version="1.1.1 (3bf5ae0d25, 2021-09-20)"
   sodipodi:docname="browser-icon.svg"
   xmlns:inkscape="http://www.inkscape.org/namespaces/inkscape"
   xmlns:sodipodi="http://sodipodi.sourceforge.net/DTD/sodipodi-0.dtd"
   xmlns="http://www.w3.org/2000/svg"
   xmlns:svg="http://www.w3.org/2000/svg">
  <sodipodi:namedview
     id="namedview7"
     pagecolor="#ffffff"
     bordercolor="#666666"
     borderopacity="1.0"
     inkscape:pageshadow="2"
     inkscape:pageopacity="0.0"
     inkscape:pagecheckerboard="0"
     inkscape:document-units="mm"
     showgrid="false"
     inkscape:zoom="2.096401"
     inkscape:cx="216.32312"
     inkscape:cy="174.82343"
     inkscape:window-width="1920"
     inkscape:window-height="1017"
     inkscape:window-x="-8"
     inkscape:window-y="1072"
     inkscape:window-maximized="1"
     inkscape:current-layer="layer1" />
  <defs
     id="defs2" />
  <g
     inkscape:label="Layer 1"
     inkscape:groupmode="layer"
     id="layer1">
    <g
       aria-label="!"
       id="text2475"
       style="font-size:10.5833px;line-height:1.25;stroke-width:0.264583" />
    <g
       aria-label="S"
       id="text3967"
       style="font-size:10.5833px;line-height:1.25;stroke-width:0.264583" />
    <g
       aria-label="S"
       id="text5393"
       style="font-size:10.5833px;line-height:1.25;fill:#f2f2f2;stroke-width:0.264583"
       transform="translate(-0.25241672,0.12620836)">
      <path
         id="path5475"
         d="m 11.732564,5.9855375 q 0,0.4495836 -0.211872,0.8888318 Q 11.313987,7.3136176 10.93675,7.6185076 10.52334,7.9492357 9.9704038,8.1352703 9.4226353,8.3213048 8.6474913,8.3213048 7.8155034,8.3213048 7.1488795,8.166276 6.4874233,8.0112472 5.800129,7.7063572 V 6.4247858 h 0.072347 q 0.5839419,0.4857569 1.3487506,0.7493059 0.7648088,0.263549 1.4366003,0.263549 0.9508433,0 1.4779411,-0.3565663 0.532265,-0.3565662 0.532265,-0.9508433 0,-0.5115951 -0.253213,-0.7544735 Q 10.166774,5.1328791 9.6551785,4.9985208 9.2676065,4.8951683 8.8128554,4.8279891 8.3632718,4.76081 7.8568444,4.6574574 6.8336543,4.4404171 6.3375621,3.9184868 5.8466376,3.3913889 5.8466376,2.5490657 q 0,-0.9663462 0.816485,-1.58129377 0.8164851,-0.62011521 2.0722184,-0.62011521 0.8113174,0 1.488276,0.1550288 0.67696,0.1550288 1.19889,0.38240438 V 2.0943146 H 11.35016 Q 10.910912,1.7222454 10.192612,1.479367 9.4794792,1.2313209 8.7301733,1.2313209 q -0.8216526,0 -1.3229124,0.3410634 -0.4960922,0.3410633 -0.4960922,0.8784965 0,0.4805893 0.2480461,0.7544735 0.2480461,0.2738842 0.8733289,0.4185778 0.3307281,0.072347 0.9405081,0.1756993 0.60978,0.1033525 1.0335252,0.2118727 0.857826,0.2273756 1.291907,0.6872944 0.43408,0.4599187 0.43408,1.286739 z M 7.8461144,5.9329996 q 0,0.4495835 -0.2118727,0.8888318 Q 7.4275367,7.2610797 7.0502999,7.5659697 6.6368898,7.8966978 6.0839537,8.0827323 5.5361853,8.2687669 4.7610413,8.2687669 q -0.831988,0 -1.4986118,-0.1550288 Q 2.6009733,7.9587093 1.9136789,7.6538193 V 6.3722479 h 0.072347 q 0.5839418,0.4857569 1.3487506,0.7493059 0.7648087,0.2635489 1.4366002,0.2635489 0.9508433,0 1.4779413,-0.3565662 0.5322655,-0.3565663 0.5322655,-0.9508433 0,-0.5115951 -0.2532137,-0.7544735 Q 6.2803235,5.0803412 5.7687285,4.9459829 5.3811565,4.8426304 4.9264053,4.7754512 4.4768218,4.7082721 3.9703944,4.6049195 2.9472043,4.3878792 2.4511121,3.8659489 1.9601875,3.338851 1.9601875,2.4965278 q 0,-0.9663462 0.8164851,-1.58129379 0.816485,-0.62011521 2.0722183,-0.62011521 0.8113174,0 1.4882765,0.1550288 0.6769591,0.1550288 1.1988894,0.38240438 V 2.0417766 H 7.4637101 Q 7.0244618,1.6697075 6.3061617,1.4268291 5.5930292,1.178783 4.8437233,1.178783 q -0.8216527,0 -1.3229125,0.3410633 -0.4960921,0.3410634 -0.4960921,0.8784966 0,0.4805893 0.248046,0.7544735 0.2480461,0.2738842 0.873329,0.4185778 0.3307281,0.072347 0.940508,0.1756993 0.60978,0.1033525 1.0335254,0.2118727 0.857826,0.2273756 1.2919067,0.6872943 0.4340806,0.4599188 0.4340806,1.2867391 z M 1.9071553,0.3858166 1.772797,5.9616859 H 0.89430044 L 0.74960689,0.3858166 Z M 1.855479,8.0804129 H 0.80128316 V 6.9900436 H 1.855479 Z"
         style="fill:#f2f2f2" />
    </g>
  </g>
</svg>
