<?xml version="1.0" encoding="UTF-8" standalone="no"?>
<!-- Created with Inkscape (http://www.inkscape.org/) -->

<svg
   width="35mm"
   height="23mm"
   viewBox="0 0 35 23"
   version="1.1"
   id="svg5"
   inkscape:version="1.1.1 (3bf5ae0d25, 2021-09-20)"
   sodipodi:docname="drawing.svg"
   xmlns:inkscape="http://www.inkscape.org/namespaces/inkscape"
   xmlns:sodipodi="http://sodipodi.sourceforge.net/DTD/sodipodi-0.dtd"
   xmlns="http://www.w3.org/2000/svg"
   xmlns:svg="http://www.w3.org/2000/svg">
  <sodipodi:namedview
     id="namedview7"
     pagecolor="#ffffff"
     bordercolor="#666666"
     borderopacity="1.0"
     inkscape:pageshadow="2"
     inkscape:pageopacity="0.0"
     inkscape:pagecheckerboard="0"
     inkscape:document-units="mm"
     showgrid="false"
     showguides="true"
     inkscape:guide-bbox="true"
     inkscape:zoom="1.0482005"
     inkscape:cx="321.98039"
     inkscape:cy="340.10669"
     inkscape:window-width="1920"
     inkscape:window-height="1017"
     inkscape:window-x="-8"
     inkscape:window-y="1072"
     inkscape:window-maximized="1"
     inkscape:current-layer="layer1">
    <sodipodi:guide
       position="62.914867,216.79459"
       orientation="0,-1"
       id="guide15717" />
  </sodipodi:namedview>
  <defs
     id="defs2" />
  <g
     inkscape:label="Layer 1"
     inkscape:groupmode="layer"
     id="layer1">
    <g
       aria-label="!"
       transform="scale(1.0277853,0.97296586)"
       id="text3915"
       style="font-size:21.4115px;line-height:1.25;stroke-width:0.535288" />
    <g
       aria-label="Store"
       id="text8405"
       style="font-size:10.5833px;line-height:1.25;stroke-width:0.264583" />
    <g
       aria-label="Shoe"
       transform="matrix(1.0322539,0,0,0.9687539,-63.735223,-83.360623)"
       id="text14711"
       style="font-size:11.0435px;line-height:1.25;stroke-width:0.276089">
      <path
         id="path15725"
         d="m 93.927554,94.786289 h -4.437891 q 0,0.55541 0.167162,0.97062 0.167163,0.409817 0.458349,0.674042 0.280401,0.258832 0.663257,0.388248 0.388248,0.129416 0.851988,0.129416 0.614727,0 1.234845,-0.242655 0.625511,-0.248048 0.889735,-0.485311 h 0.05392 v 1.105429 q -0.512271,0.215693 -1.046112,0.361286 -0.533841,0.145593 -1.121606,0.145593 -1.499069,0 -2.340273,-0.80885 -0.841204,-0.814242 -0.841204,-2.307919 0,-1.477499 0.803458,-2.345665 0.80885,-0.868166 2.124579,-0.868166 1.218668,0 1.876533,0.711788 0.663257,0.711788 0.663257,2.022126 z m -0.986797,-0.776496 q -0.0054,-0.798066 -0.404425,-1.234845 -0.393641,-0.436779 -1.202491,-0.436779 -0.814242,0 -1.299552,0.479918 -0.479918,0.479917 -0.544626,1.191706 z m -5.624205,0.674041 q 0,1.472107 -0.754926,2.324096 -0.754927,0.851989 -2.022126,0.851989 -1.277983,0 -2.03291,-0.851989 -0.749534,-0.851989 -0.749534,-2.324096 0,-1.472107 0.749534,-2.324096 0.754927,-0.857381 2.03291,-0.857381 1.267199,0 2.022126,0.857381 0.754926,0.851989 0.754926,2.324096 z m -1.046112,0 q 0,-1.170136 -0.458349,-1.736331 -0.458348,-0.571588 -1.272591,-0.571588 -0.825027,0 -1.283375,0.571588 -0.452956,0.566195 -0.452956,1.736331 0,1.13239 0.458348,1.720155 0.458349,0.582372 1.277983,0.582372 0.80885,0 1.267199,-0.57698 0.463741,-0.582372 0.463741,-1.725547 z m -6.039415,3.008923 h -1.013759 v -3.429525 q 0,-0.415209 -0.04853,-0.776496 -0.04853,-0.366679 -0.177947,-0.571587 -0.134808,-0.226478 -0.388248,-0.334325 -0.253439,-0.113239 -0.657865,-0.113239 -0.415209,0 -0.868165,0.204909 -0.452956,0.204908 -0.868166,0.523056 v 4.497207 h -1.013759 v -8.390472 h 1.013759 v 3.035884 q 0.474525,-0.39364 0.981405,-0.614726 0.506879,-0.221086 1.04072,-0.221086 0.976013,0 1.488284,0.587765 0.512272,0.587764 0.512272,1.693193 z m -6.670317,-2.291742 q 0,0.469133 -0.221086,0.927481 -0.215693,0.458349 -0.609334,0.776496 -0.431386,0.34511 -1.008366,0.539234 -0.571588,0.194124 -1.380438,0.194124 -0.868165,0 -1.563776,-0.16177 -0.690219,-0.16177 -1.4074,-0.479918 v -1.337299 h 0.07549 q 0.609334,0.506879 1.407399,0.781889 0.798066,0.275009 1.499069,0.275009 0.992189,0 1.542208,-0.372071 0.55541,-0.372072 0.55541,-0.99219 0,-0.533841 -0.264224,-0.787281 -0.258832,-0.253439 -0.792674,-0.39364 -0.404425,-0.107847 -0.87895,-0.177947 -0.469133,-0.0701 -0.997582,-0.177947 -1.067682,-0.226478 -1.585346,-0.771104 -0.512272,-0.550018 -0.512272,-1.428968 0,-1.008367 0.851989,-1.650055 0.851989,-0.64708 2.162326,-0.64708 0.846596,0 1.552992,0.16177 0.706396,0.16177 1.251022,0.399033 v 1.261806 h -0.07549 q -0.458348,-0.388248 -1.207883,-0.641687 -0.744142,-0.258833 -1.52603,-0.258833 -0.857381,0 -1.380438,0.355895 -0.517664,0.355894 -0.517664,0.916696 0,0.501487 0.258832,0.787281 0.258832,0.285794 0.911305,0.436779 0.345109,0.07549 0.981404,0.183339 0.636296,0.107847 1.078467,0.221086 0.895128,0.237263 1.348084,0.717181 0.452956,0.479917 0.452956,1.342691 z m 20.349078,7.294725 h -4.120069 q 0,0.54943 0.155192,0.96017 0.15519,0.40541 0.425523,0.66679 0.26032,0.25605 0.615758,0.38407 0.360443,0.12802 0.790973,0.12802 0.570701,0 1.146409,-0.24004 0.580715,-0.24538 0.826017,-0.48008 h 0.05007 v 1.09353 q -0.475584,0.21336 -0.971194,0.35739 -0.49561,0.14403 -1.041281,0.14403 -1.391712,0 -2.172673,-0.80015 -0.780961,-0.80548 -0.780961,-2.28308 0,-1.4616 0.745918,-2.32042 0.750924,-0.858822 1.972427,-0.858822 1.131391,0 1.742143,0.704132 0.615757,0.70412 0.615757,2.00036 z m -0.916127,-0.76814 q -0.005,-0.78948 -0.375462,-1.22156 -0.365449,-0.43208 -1.116374,-0.43208 -0.755929,0 -1.206484,0.47476 -0.445547,0.47475 -0.505622,1.17888 z m -4.650721,-1.22156 h -0.05007 q -0.210259,-0.0533 -0.410505,-0.0747 -0.195241,-0.0267 -0.465573,-0.0267 -0.435536,0 -0.841035,0.20803 -0.405498,0.20271 -0.78096,0.5281 v 4.2301 H 84.853642 V 99.612505 H 85.7948 v 0.880165 q 0.56069,-0.48009 0.986213,-0.677461 0.43053,-0.202704 0.876078,-0.202704 0.245301,0 0.355437,0.016 0.110135,0.01066 0.330407,0.04801 z m -4.946085,1.88835 q 0,1.45626 -0.700862,2.29908 -0.700863,0.84282 -1.87731,0.84282 -1.18646,0 -1.887322,-0.84282 -0.695856,-0.84282 -0.695856,-2.29908 0,-1.45627 0.695856,-2.29909 0.700862,-0.848152 1.887322,-0.848152 1.176447,0 1.87731,0.848152 0.700862,0.84282 0.700862,2.29909 z m -0.971195,0 q 0,-1.15755 -0.425523,-1.71765 -0.425524,-0.56544 -1.181454,-0.56544 -0.765942,0 -1.191465,0.56544 -0.420518,0.5601 -0.420518,1.71765 0,1.1202 0.425523,1.70163 0.425524,0.57612 1.18646,0.57612 0.750924,0 1.176447,-0.57078 0.43053,-0.5761 0.43053,-1.70697 z m -4.931066,2.92319 q -0.265327,0.0747 -0.580715,0.1227 -0.310381,0.048 -0.555684,0.048 -0.856052,0 -1.301601,-0.49077 -0.445547,-0.49075 -0.445547,-1.57362 v -3.16857 H 73.975262 V 99.6125 h 0.635783 v -1.712301 h 0.941157 v 1.712311 h 1.94239 v 0.84282 h -1.94239 v 2.71516 q 0,0.46942 0.02002,0.73614 0.02002,0.26137 0.140173,0.49075 0.110135,0.21337 0.300369,0.31472 0.195241,0.096 0.590727,0.096 0.230283,0 0.480591,-0.0694 0.250308,-0.0747 0.360443,-0.1227 h 0.05007 z m -4.420438,-2.21373 q 0,0.46408 -0.205252,0.9175 -0.200247,0.45342 -0.565696,0.76814 -0.400493,0.34139 -0.936152,0.53343 -0.530653,0.19203 -1.281577,0.19203 -0.805992,0 -1.451786,-0.16003 -0.640788,-0.16002 -1.306607,-0.47474 v -1.32292 h 0.07009 q 0.565695,0.50143 1.306607,0.77348 0.740912,0.27205 1.391712,0.27205 0.921134,0 1.431762,-0.36807 0.515634,-0.36806 0.515634,-0.98151 0,-0.5281 -0.245301,-0.77881 -0.240297,-0.25071 -0.735906,-0.3894 -0.375462,-0.10669 -0.816004,-0.17604 -0.435535,-0.0693 -0.926139,-0.17603 -0.99122,-0.22404 -1.471811,-0.7628 -0.475585,-0.5441 -0.475585,-1.413593 0,-0.997515 0.790974,-1.632297 0.790973,-0.640116 2.007469,-0.640116 0.785966,0 1.441773,0.160029 0.655807,0.160029 1.16143,0.394738 v 1.248227 h -0.07009 q -0.425523,-0.384069 -1.121379,-0.634782 -0.69085,-0.256047 -1.416743,-0.256047 -0.795979,0 -1.281577,0.352065 -0.480591,0.352064 -0.480591,0.906831 0,0.496095 0.240296,0.778805 0.240295,0.28272 0.846041,0.43208 0.320394,0.0747 0.911121,0.18137 0.590726,0.10668 1.001231,0.21871 0.831022,0.2347 1.25154,0.70946 0.420517,0.47475 0.420516,1.32824 z M 66.708102,89.882023 66.437453,101.21184 H 64.667826 L 64.376357,89.882023 Z m -0.104096,15.634927 h -2.123553 v -2.21556 h 2.123553 z" />
    </g>
  </g>
</svg>
